<svg id="Layer_1" data-name="Layer 1" xmlns="http://www.w3.org/2000/svg" xmlns:xlink="http://www.w3.org/1999/xlink" viewBox="0 0 1080 1080"><defs><style>.cls-1{fill:url(#Degradado_sin_nombre_3);}.cls-2{fill:#44429a;}.cls-3{fill:#a0c7ea;}.cls-4{fill:url(#Degradado_sin_nombre_3-2);}.cls-5{fill:url(#Degradado_sin_nombre_3-3);}.cls-6{fill:url(#Degradado_sin_nombre_3-4);}.cls-7{fill:url(#Degradado_sin_nombre_3-5);}.cls-8{fill:url(#Degradado_sin_nombre_3-6);}.cls-9{fill:url(#Degradado_sin_nombre_3-7);}.cls-10{fill:url(#Degradado_sin_nombre_3-8);}.cls-11{fill:url(#Degradado_sin_nombre_3-9);}.cls-12{fill:url(#Degradado_sin_nombre_3-10);}.cls-13{fill:url(#linear-gradient);}.cls-14{fill:url(#Degradado_sin_nombre_3-11);}.cls-15{fill:url(#Degradado_sin_nombre_3-12);}.cls-16{fill:url(#Degradado_sin_nombre_3-13);}.cls-17{fill:url(#Degradado_sin_nombre_3-14);}.cls-18{fill:url(#linear-gradient-2);}.cls-19{fill:url(#Degradado_sin_nombre_3-15);}.cls-20{fill:url(#Degradado_sin_nombre_3-16);}.cls-21{fill:url(#Degradado_sin_nombre_3-17);}.cls-22{fill:url(#Degradado_sin_nombre_3-18);}.cls-23{fill:url(#Degradado_sin_nombre_3-19);}.cls-24{fill:url(#Degradado_sin_nombre_3-20);}.cls-25{fill:url(#Degradado_sin_nombre_3-21);}.cls-26{fill:url(#Degradado_sin_nombre_3-22);}.cls-27{fill:url(#linear-gradient-3);}.cls-28{fill:url(#Degradado_sin_nombre_3-23);}.cls-29{fill:url(#Degradado_sin_nombre_3-24);}.cls-30{fill:url(#Degradado_sin_nombre_3-25);}.cls-31{fill:url(#Degradado_sin_nombre_3-26);}.cls-32{fill:url(#Degradado_sin_nombre_3-27);}.cls-33{fill:url(#Degradado_sin_nombre_3-28);}</style><linearGradient id="Degradado_sin_nombre_3" x1="908.09" y1="1808.35" x2="929.73" y2="1845.83" gradientTransform="matrix(1, 0, 0, -1, 0, 2182)" gradientUnits="userSpaceOnUse"><stop offset="0" stop-color="#4a4fa0"/><stop offset="1" stop-color="#4994ce"/></linearGradient><linearGradient id="Degradado_sin_nombre_3-2" x1="880.12" y1="1760.93" x2="846.01" y2="1807.18" xlink:href="#Degradado_sin_nombre_3"/><linearGradient id="Degradado_sin_nombre_3-3" x1="231.99" y1="563.03" x2="1023.59" y2="563.03" gradientTransform="matrix(1, 0, 0, 1, 0, 0)" xlink:href="#Degradado_sin_nombre_3"/><linearGradient id="Degradado_sin_nombre_3-4" x1="482.12" y1="345.22" x2="585.64" y2="345.22" gradientTransform="matrix(1, 0, 0, 1, 0, 0)" xlink:href="#Degradado_sin_nombre_3"/><linearGradient id="Degradado_sin_nombre_3-5" x1="231.99" y1="487.58" x2="334.87" y2="487.58" gradientTransform="matrix(1, 0, 0, 1, 0, 0)" xlink:href="#Degradado_sin_nombre_3"/><linearGradient id="Degradado_sin_nombre_3-6" x1="683.16" y1="568.7" x2="766.34" y2="568.7" gradientTransform="matrix(1, 0, 0, 1, 0, 0)" xlink:href="#Degradado_sin_nombre_3"/><linearGradient id="Degradado_sin_nombre_3-7" x1="513.41" y1="369.18" x2="880.05" y2="369.18" gradientTransform="matrix(1, 0, 0, 1, 0, 0)" xlink:href="#Degradado_sin_nombre_3"/><linearGradient id="Degradado_sin_nombre_3-8" x1="756.37" y1="519.18" x2="887.2" y2="519.18" gradientTransform="matrix(1, 0, 0, 1, 0, 0)" xlink:href="#Degradado_sin_nombre_3"/><linearGradient id="Degradado_sin_nombre_3-9" x1="874.31" y1="586.79" x2="1006.64" y2="586.79" gradientTransform="matrix(1, 0, 0, 1, 0, 0)" xlink:href="#Degradado_sin_nombre_3"/><linearGradient id="Degradado_sin_nombre_3-10" x1="869.26" y1="579.96" x2="989.16" y2="579.96" gradientTransform="matrix(1, 0, 0, 1, 0, 0)" xlink:href="#Degradado_sin_nombre_3"/><linearGradient id="linear-gradient" x1="858.59" y1="576.95" x2="979.32" y2="576.95" gradientUnits="userSpaceOnUse"><stop offset="0" stop-color="#a0c7ea"/><stop offset="0.18" stop-color="#9ac6e9"/><stop offset="0.42" stop-color="#89c4e8"/><stop offset="0.7" stop-color="#6dc1e5"/><stop offset="1" stop-color="#47bde2"/></linearGradient><linearGradient id="Degradado_sin_nombre_3-11" x1="774.71" y1="561.87" x2="997.06" y2="561.87" gradientTransform="matrix(1, 0, 0, 1, 0, 0)" xlink:href="#Degradado_sin_nombre_3"/><linearGradient id="Degradado_sin_nombre_3-12" x1="841.66" y1="584.37" x2="1023.59" y2="584.37" gradientTransform="matrix(1, 0, 0, 1, 0, 0)" xlink:href="#Degradado_sin_nombre_3"/><linearGradient id="Degradado_sin_nombre_3-13" x1="780.19" y1="610.07" x2="820.28" y2="610.07" gradientTransform="matrix(1, 0, 0, 1, 0, 0)" xlink:href="#Degradado_sin_nombre_3"/><linearGradient id="Degradado_sin_nombre_3-14" x1="601.61" y1="533.05" x2="719.48" y2="533.05" gradientTransform="matrix(1, 0, 0, 1, 0, 0)" xlink:href="#Degradado_sin_nombre_3"/><linearGradient id="linear-gradient-2" x1="449.58" y1="445.96" x2="863.88" y2="445.96" gradientTransform="matrix(1, 0, 0, 1, 0, 0)" xlink:href="#Degradado_sin_nombre_3"/><linearGradient id="Degradado_sin_nombre_3-15" x1="566.16" y1="520.26" x2="669.92" y2="520.26" gradientTransform="matrix(1, 0, 0, 1, 0, 0)" xlink:href="#Degradado_sin_nombre_3"/><linearGradient id="Degradado_sin_nombre_3-16" x1="462.21" y1="490.49" x2="669.93" y2="490.49" gradientTransform="matrix(1, 0, 0, 1, 0, 0)" xlink:href="#Degradado_sin_nombre_3"/><linearGradient id="Degradado_sin_nombre_3-17" x1="385.31" y1="699.37" x2="511.25" y2="699.37" gradientTransform="matrix(1, 0, 0, 1, 0, 0)" xlink:href="#Degradado_sin_nombre_3"/><linearGradient id="Degradado_sin_nombre_3-18" x1="267.67" y1="577.79" x2="626.46" y2="577.79" gradientTransform="matrix(1, 0, 0, 1, 0, 0)" xlink:href="#Degradado_sin_nombre_3"/><linearGradient id="Degradado_sin_nombre_3-19" x1="258.32" y1="585.52" x2="504.15" y2="585.52" gradientTransform="matrix(1, 0, 0, 1, 0, 0)" xlink:href="#Degradado_sin_nombre_3"/><linearGradient id="Degradado_sin_nombre_3-20" x1="501.28" y1="663.85" x2="632.11" y2="663.85" gradientTransform="matrix(1, 0, 0, 1, 0, 0)" xlink:href="#Degradado_sin_nombre_3"/><linearGradient id="Degradado_sin_nombre_3-21" x1="619.23" y1="731.45" x2="751.55" y2="731.45" gradientTransform="matrix(1, 0, 0, 1, 0, 0)" xlink:href="#Degradado_sin_nombre_3"/><linearGradient id="Degradado_sin_nombre_3-22" x1="614.17" y1="724.62" x2="734.07" y2="724.62" gradientTransform="matrix(1, 0, 0, 1, 0, 0)" xlink:href="#Degradado_sin_nombre_3"/><linearGradient id="linear-gradient-3" x1="603.5" y1="721.61" x2="724.22" y2="721.61" xlink:href="#linear-gradient"/><linearGradient id="Degradado_sin_nombre_3-23" x1="519.62" y1="706.53" x2="741.97" y2="706.53" gradientTransform="matrix(1, 0, 0, 1, 0, 0)" xlink:href="#Degradado_sin_nombre_3"/><linearGradient id="Degradado_sin_nombre_3-24" x1="586.57" y1="729.04" x2="768.5" y2="729.04" gradientTransform="matrix(1, 0, 0, 1, 0, 0)" xlink:href="#Degradado_sin_nombre_3"/><linearGradient id="Degradado_sin_nombre_3-25" x1="525.09" y1="754.74" x2="565.19" y2="754.74" gradientTransform="matrix(1, 0, 0, 1, 0, 0)" xlink:href="#Degradado_sin_nombre_3"/><linearGradient id="Degradado_sin_nombre_3-26" x1="356.79" y1="1416.84" x2="378.43" y2="1454.32" xlink:href="#Degradado_sin_nombre_3"/><linearGradient id="Degradado_sin_nombre_3-27" x1="227.93" y1="1380.17" x2="249.57" y2="1417.65" xlink:href="#Degradado_sin_nombre_3"/><linearGradient id="Degradado_sin_nombre_3-28" x1="285.1" y1="1422.26" x2="276.61" y2="1449.26" xlink:href="#Degradado_sin_nombre_3"/></defs><path class="cls-1" d="M966.17,335h0l-23.53-13.46h0l-11.41-6.43a55.86,55.86,0,0,0-72.29,14.41,45.22,45.22,0,0,0,13.29,66.65L900,412.08h0l24.5,14h0c5.72,3.26,13.16,2.95,21.29-1.75,18-10.41,32.65-38.33,32.65-62.37,0-13.78-4.81-23.28-12.3-26.93Z"/><path class="cls-2" d="M920,370c10.85-25.46,31.32-41.13,45.73-35s17.29,31.76,6.44,57.22-31.32,41.13-45.73,35S909.15,395.43,920,370Z"/><path class="cls-3" d="M927.35,373.09c7.79-18.29,22.49-29.54,32.84-25.13s12.42,22.81,4.63,41.1S942.32,418.6,932,414.19,919.55,391.38,927.35,373.09Z"/><path class="cls-4" d="M635.38,363.83V337.38L871.88,225.9A27.65,27.65,0,0,1,897.5,227l68.36,39.47a26.33,26.33,0,0,1,6.68,40.09L826.44,474.14Z"/><path class="cls-5" d="M996.9,473.43l.16.08L930.11,434.6c-11.62-6.75-26.39-8.06-42.91-3.2l-1.66-1a37.27,37.27,0,0,0-5.49-2.6L722.38,361c-53.27-31.26-101.66-59.66-108.07-63.39-7.74-4.49-17.62-5.27-28.67-1.83l-21.59-12.55c-8.72-5.07-20.8-4.35-34.13,3.35C503.43,301.91,482,339,482.12,369.4c.05,15.13,5.38,25.77,14,30.76l17.61,10.25c1.43,15.09,7.63,25.8,16.91,31.21.92.52,2.72,1.58,5.25,3.06l-86.31,50.11c-42.69-25.06-78.08-45.82-83.42-48.91a27,27,0,0,0-4.32-2l-2.62-1.53c-6.71-3.9-15-5-24.35-3l-21-12.18c-8.71-5.06-20.79-4.35-34.12,3.34-26.49,15.31-47.88,52.36-47.8,82.8,0,15.12,5.38,25.75,14,30.77l12.42,7.21c.68,17.1,7.1,29.18,17.15,35C282,590,331.39,619,385.31,650.65l125.93,97.43h0a38.81,38.81,0,0,0,9.42,9.61c3,20.75,12.18,35.59,25.49,43.33l67,38.9c-.48-.28-.94-.6-1.42-.9,16.64,10.55,40.12,9.58,66.14-5.43,50.24-29,90.84-99.33,90.67-157.07-.08-28.76-10.27-49-26.69-58.41l.16.08-67-38.91c-11.62-6.75-26.39-8.07-42.91-3.21l-1.66-1a36,36,0,0,0-4-2h0l-2.24-1,58.94-34.23,83.17,65.49h0a38.85,38.85,0,0,0,9.43,9.61c3,20.74,12.17,35.58,25.48,43.32l67,38.91c-.49-.29-.94-.61-1.41-.9,16.63,10.54,40.12,9.58,66.12-5.44,50.25-29,90.85-99.34,90.68-157.06C1023.51,503.09,1013.33,482.88,996.9,473.43Z"/><path class="cls-6" d="M572.27,301.77a66.5,66.5,0,0,1,13.37-5.95l-21.59-12.55c-8.72-5.07-20.8-4.35-34.13,3.35C503.43,301.91,482,339,482.12,369.4c.05,15.13,5.38,25.77,14,30.76l17.61,10.25c-.2-2.15-.31-4.37-.32-6.68C513.31,366.25,539.66,320.6,572.27,301.77Z"/><path class="cls-7" d="M317.18,446.43a62.57,62.57,0,0,1,17.69-7.11l-21-12.18c-8.71-5.06-20.79-4.35-34.12,3.34-26.49,15.31-47.88,52.36-47.8,82.8,0,15.12,5.38,25.75,14,30.77l12.42,7.21c0-1-.07-1.9-.07-2.87C258.22,510.92,284.57,465.27,317.18,446.43Z"/><path class="cls-8" d="M690,534l-6.79,3.94,83.17,65.49h0a51.22,51.22,0,0,1-6.91-14.72Z"/><path class="cls-9" d="M528.68,406.5c-.1-35.17,24.62-78,55.23-95.67,15.4-8.89,29.35-9.71,39.43-3.86,6,3.49,51.42,30.14,101.4,59.47l139.14,58.94a41.35,41.35,0,0,1,16.17,2.45L722.38,361c-53.27-31.26-101.66-59.66-108.07-63.39-7.74-4.49-17.62-5.27-28.67-1.83a66.5,66.5,0,0,0-13.37,5.95c-32.61,18.83-59,64.48-58.86,102,0,2.31.12,4.53.32,6.68,1.43,15.09,7.63,25.8,16.91,31.21.92.52,2.72,1.58,5.25,3.06l6.87-4C534.05,434.46,528.73,422.71,528.68,406.5Z"/><path class="cls-10" d="M865.37,441a100.25,100.25,0,0,1,21.83-9.55l-1.66-1a37.27,37.27,0,0,0-5.49-2.6,41.35,41.35,0,0,0-16.17-2.45c-9.77.35-20.66,3.68-32.15,10.31-41.76,24.11-75.5,82.56-75.36,130.54a79.1,79.1,0,0,0,3.06,22.46,51.22,51.22,0,0,0,6.91,14.72,38.85,38.85,0,0,0,9.43,9.61,106.66,106.66,0,0,1-1.06-15C774.55,540.26,815.13,470,865.37,441Z"/><path class="cls-11" d="M1000.92,578.1a125.71,125.71,0,0,0,5.72-36.48c0-.43,0-.84,0-1.27,0-1.48-.06-3-.15-4.36-.05-.74-.13-1.43-.19-2.15-.1-1.13-.2-2.26-.35-3.34-.09-.72-.2-1.42-.31-2.12-.17-1-.35-2.09-.55-3.11-.14-.65-.28-1.3-.43-1.93-.24-1.06-.52-2.09-.81-3.1-.15-.54-.3-1.08-.46-1.61-.38-1.21-.81-2.37-1.25-3.51-.12-.28-.21-.58-.32-.86-.59-1.43-1.23-2.82-1.92-4.14-.09-.17-.2-.33-.29-.5-.6-1.11-1.22-2.19-1.89-3.22-.22-.34-.46-.66-.69-1-.57-.83-1.16-1.63-1.77-2.39-.28-.35-.57-.69-.86-1q-.92-1.07-1.89-2c-.31-.31-.61-.63-.93-.92-.7-.66-1.42-1.27-2.16-1.86-.3-.23-.58-.49-.88-.71a33.39,33.39,0,0,0-3.06-2.06l-.19-.12c-.16-.1-.34-.17-.5-.27a80.58,80.58,0,0,1,4.41,27.29A136.09,136.09,0,0,1,983,560.68c-12,40-40.37,79.47-73.49,98.59-12.62,7.29-24.56,10.81-35.19,10.94.44.39.86.81,1.31,1.18l.21.17a35.7,35.7,0,0,0,3,2.18l.31.2c1.06.66,2.13,1.26,3.24,1.81l.26.12a36.35,36.35,0,0,0,7.47,2.63h0a38.67,38.67,0,0,0,3.92.7l.32,0c1.31.16,2.64.25,4,.29h.39c1.37,0,2.76,0,4.18-.1l.25,0a55,55,0,0,0,9.16-1.49l.15,0c1.52-.38,3.05-.83,4.61-1.34l.48-.16q2.26-.76,4.58-1.72l.56-.23c1.56-.65,3.12-1.36,4.7-2.15l.43-.21q2.46-1.23,5-2.67C963.53,651.73,989.77,615.12,1000.92,578.1Z"/><path class="cls-12" d="M909.5,659.27C942.62,640.15,971,600.63,983,560.68a136.09,136.09,0,0,0,6.17-39.38A80.58,80.58,0,0,0,984.75,494a36.89,36.89,0,0,0-12.6-4.3c4.56,8.6,7.13,19.62,7.17,32.79a130.3,130.3,0,0,1-5.9,37.61c-11.5,38.17-38.56,75.91-70.19,94.17-12.2,7.05-23.73,10.4-34,10.45a39,39,0,0,0,5,5.48h.07C884.94,670.08,896.88,666.56,909.5,659.27Z"/><path class="cls-13" d="M973.42,560.11a130.3,130.3,0,0,0,5.9-37.61c0-13.17-2.61-24.19-7.17-32.79a42.5,42.5,0,0,0-7.65-.53c-.55,0-1.12.06-1.68.1s-1,0-1.52.08-1.23.15-1.84.23-1,.1-1.53.19-1.28.23-1.92.35-1,.18-1.53.29c-.67.15-1.35.33-2,.51-.5.12-1,.23-1.51.37-.71.2-1.43.43-2.15.66-.48.17-1,.29-1.44.46-.75.25-1.51.55-2.26.84-.47.18-.93.32-1.4.52l0,0a86.55,86.55,0,0,0-11.28,5.52,108.46,108.46,0,0,0-11.27,7.49c-1.11.83-2.21,1.69-3.3,2.57-33.88,27.36-59.34,76.49-59.22,117.73a87.58,87.58,0,0,0,.89,12.46,65.08,65.08,0,0,0,3.17,12.76c.16.45.31.92.49,1.36s.3.71.45,1.06a46.3,46.3,0,0,0,5.67,10c10.24-.05,21.77-3.4,34-10.45C934.86,636,961.92,598.28,973.42,560.11Z"/><path class="cls-14" d="M863.84,692.31c-.45-.34-.9-.67-1.34-1s-1-.85-1.45-1.28-.84-.72-1.24-1.11-.92-.95-1.38-1.43-.78-.79-1.16-1.21-.86-1-1.29-1.56-.73-.85-1.07-1.31-.81-1.14-1.21-1.71-.67-.92-1-1.4-.74-1.22-1.11-1.83-.62-1-.91-1.51-.66-1.31-1-2-.56-1.06-.82-1.61-.6-1.4-.91-2.1-.49-1.12-.72-1.7-.54-1.48-.8-2.24c-.21-.6-.44-1.18-.64-1.79s-.46-1.57-.69-2.36c-.17-.62-.38-1.24-.54-1.88-.21-.83-.39-1.69-.59-2.54-.14-.64-.3-1.26-.44-1.92-.17-.9-.32-1.82-.47-2.75-.11-.64-.24-1.27-.33-1.92-.15-1-.25-2-.37-3-.07-.62-.16-1.21-.22-1.85-.11-1.15-.18-2.34-.26-3.52,0-.53-.08-1-.11-1.56-.08-1.74-.13-3.5-.13-5.3-.16-57.73,40.42-128,90.66-157,1.58-.92,3.15-1.77,4.7-2.58.44-.23.87-.42,1.31-.64,1.11-.55,2.23-1.11,3.33-1.63l1.59-.68c1-.43,2-.88,3-1.28.51-.21,1-.37,1.51-.57l.18-.07c.94-.35,1.88-.72,2.81-1l1.67-.51c.91-.3,1.84-.6,2.75-.85.57-.16,1.12-.29,1.68-.43.89-.23,1.78-.47,2.65-.66.57-.12,1.13-.21,1.69-.32.86-.16,1.72-.34,2.56-.48.56-.07,1.11-.12,1.67-.2.83-.1,1.66-.23,2.48-.3.56-.05,1.09-.06,1.65-.1.8,0,1.61-.1,2.39-.13.55,0,1.09,0,1.64,0,.76,0,1.54,0,2.3,0,.54,0,1.07.09,1.61.14.74.05,1.49.1,2.22.19.53.07,1,.18,1.58.25.71.11,1.43.21,2.12.35.52.11,1,.25,1.56.37s1.36.31,2,.5,1,.33,1.52.49,1.3.41,1.93.65,1,.41,1.49.62,1.23.49,1.82.78,1,.49,1.46.75,1.15.58,1.71.9l.16.08L930.11,434.6c-11.62-6.75-26.39-8.06-42.91-3.2A100.25,100.25,0,0,0,865.37,441c-50.24,29-90.82,99.31-90.66,157a106.66,106.66,0,0,0,1.06,15c3,20.74,12.17,35.58,25.48,43.32l67,38.91c-.49-.29-.94-.61-1.41-.9s-1-.59-1.44-.92S864.34,692.69,863.84,692.31ZM799.48,646c-11.32-9.88-17-24.57-18.12-39.31-.77-10.17-3.2-26.15,2.51-35,5.14-8,15.82-5.83,20.53.9,3.6,5.14,4.76,12.53,5.71,19.76a102.41,102.41,0,0,0,2.23,13.19c3.51,12.75,8.29,25.42,7.92,38.83C819.82,660.27,806.55,652.17,799.48,646Z"/><path class="cls-15" d="M996.9,473.43c-.56-.32-1.14-.61-1.71-.9s-1-.53-1.46-.75-1.21-.52-1.82-.78-1-.43-1.49-.62-1.28-.44-1.93-.65-1-.34-1.52-.49-1.35-.33-2-.5-1-.26-1.56-.37c-.69-.14-1.41-.24-2.12-.35-.53-.07-1-.18-1.58-.25-.73-.09-1.48-.14-2.22-.19-.54-.05-1.07-.11-1.61-.14-.76,0-1.54,0-2.3,0-.55,0-1.09,0-1.64,0-.78,0-1.59.09-2.39.13-.56,0-1.09.05-1.65.1-.82.07-1.65.2-2.48.3-.56.08-1.11.13-1.67.2-.84.14-1.7.32-2.56.48-.56.11-1.12.2-1.69.32-.87.19-1.76.43-2.65.66-.56.14-1.11.27-1.68.43-.91.25-1.84.55-2.75.85l-1.67.51c-.93.32-1.87.69-2.81,1l-.18.07c-.5.2-1,.36-1.51.57-1,.4-2,.85-3,1.28l-1.59.68c-1.1.52-2.22,1.08-3.33,1.63-.44.22-.87.41-1.31.64-1.55.81-3.12,1.66-4.7,2.58-50.24,29-90.82,99.31-90.66,157,0,1.8.05,3.56.13,5.3,0,.53.08,1,.11,1.56.08,1.18.15,2.37.26,3.52.06.64.15,1.23.22,1.85.12,1,.22,2,.37,3,.09.65.22,1.28.33,1.92.15.93.3,1.85.47,2.75.14.66.3,1.28.44,1.92.2.85.38,1.71.59,2.54.16.64.37,1.26.54,1.88.23.79.44,1.6.69,2.36s.43,1.19.64,1.79c.26.76.52,1.52.8,2.24s.48,1.13.72,1.7.59,1.42.91,2.1.55,1.07.82,1.61.65,1.32,1,2,.61,1,.91,1.51.72,1.23,1.11,1.83.65.94,1,1.4.79,1.16,1.21,1.71.71.87,1.07,1.31.85,1.06,1.29,1.56.77.81,1.16,1.21.9,1,1.38,1.43.82.74,1.24,1.11,1,.87,1.45,1.28.89.68,1.34,1,1,.77,1.51,1.12,1,.61,1.44.92c16.63,10.54,40.12,9.58,66.12-5.44,50.25-29,90.85-99.34,90.68-157.06C1023.51,503.09,1013.33,482.88,996.9,473.43Zm-64,196c-1.67,1-3.33,1.84-5,2.66l-.43.21c-1.58.79-3.14,1.5-4.7,2.15l-.56.23q-2.31,1-4.58,1.72l-.48.16c-1.56.51-3.09,1-4.61,1.34l-.15,0a55,55,0,0,1-9.16,1.49l-.25,0c-1.42.09-2.81.12-4.18.1h-.39c-1.36,0-2.69-.13-4-.29l-.32,0a38.67,38.67,0,0,1-3.92-.7h0a36.35,36.35,0,0,1-7.47-2.63l-.26-.12c-1.11-.55-2.18-1.15-3.24-1.81l-.31-.2a35.7,35.7,0,0,1-3-2.18l-.21-.17c-.47-.38-.93-.77-1.38-1.18a39,39,0,0,1-5-5.48,46.3,46.3,0,0,1-5.67-10c-.15-.35-.31-.7-.45-1.06s-.33-.91-.49-1.36a65.08,65.08,0,0,1-3.17-12.76,87.58,87.58,0,0,1-.89-12.46c-.12-41.24,25.34-90.37,59.22-117.73,1.09-.88,2.19-1.74,3.3-2.57a108.46,108.46,0,0,1,11.27-7.49,86.55,86.55,0,0,1,11.28-5.52l0,0c.47-.2.93-.34,1.4-.52.75-.29,1.51-.59,2.26-.84.48-.17,1-.29,1.44-.46.72-.23,1.44-.46,2.15-.66.51-.14,1-.25,1.51-.37.67-.18,1.35-.36,2-.51.52-.11,1-.19,1.53-.29s1.29-.26,1.92-.35,1-.13,1.53-.19,1.23-.17,1.84-.23,1-.06,1.52-.08,1.13-.09,1.68-.1a42.5,42.5,0,0,1,7.65.53,36.89,36.89,0,0,1,12.6,4.3c.16.1.34.17.5.27l.19.12a33.39,33.39,0,0,1,3.06,2.06c.3.22.58.48.88.71.74.59,1.46,1.2,2.16,1.86.32.29.62.61.93.92q1,1,1.89,2c.29.34.58.68.86,1,.61.76,1.2,1.56,1.77,2.39.23.33.47.65.69,1,.67,1,1.29,2.11,1.89,3.22.09.17.2.33.29.5.69,1.32,1.33,2.71,1.92,4.14.11.28.2.58.32.86.44,1.14.87,2.3,1.25,3.51.16.53.31,1.07.46,1.61.29,1,.57,2,.81,3.1.15.63.29,1.28.43,1.93.2,1,.38,2.06.55,3.11.11.7.22,1.4.31,2.12.15,1.08.25,2.21.35,3.34.06.72.14,1.41.19,2.15.09,1.41.13,2.88.15,4.36,0,.43,0,.84,0,1.28a126.36,126.36,0,0,1-5.71,36.47C989.77,615.12,963.53,651.73,932.87,669.44Z"/><path class="cls-16" d="M810.11,592.31c-1-7.23-2.11-14.62-5.71-19.76-4.71-6.73-15.39-8.91-20.53-.9-5.71,8.89-3.28,24.87-2.51,35,1.12,14.74,6.8,29.43,18.12,39.31,7.07,6.17,20.34,14.27,20.78-1.67.37-13.41-4.41-26.08-7.92-38.83A102.41,102.41,0,0,1,810.11,592.31Z"/><polygon class="cls-17" points="719.48 516.84 719.48 493.94 601.61 562.39 624.22 572.16 683.16 537.93 689.95 533.99 719.48 516.84"/><path class="cls-18" d="M462.16,502.18l0,0,117.64-68.32,21.73,12.56,68.35,40.39L566.16,547.09h0l103.76-60.26V502.3l-88.48,51.38,20.17,8.72,117.87-68.46v22.9L690,534l69.48,54.7a79.1,79.1,0,0,1-3.06-22.46c-.14-48,33.6-106.43,75.36-130.54,11.49-6.63,22.38-10,32.15-10.31L724.74,366.44c-50-29.33-95.39-56-101.4-59.47-10.08-5.85-24-5-39.43,3.86-30.61,17.67-55.33,60.5-55.23,95.67.05,16.21,5.37,28,14.08,34.19l-6.87,4-86.31,50.11,7.77,4.57Z"/><polygon class="cls-19" points="669.92 486.83 566.16 547.09 581.44 553.68 669.92 502.3 669.92 486.83"/><polygon class="cls-20" points="601.58 446.44 579.85 433.88 462.21 502.2 566.16 547.09 669.93 486.83 601.58 446.44"/><path class="cls-21" d="M438.23,681.7l-52.92-31.05,125.93,97.43h0a51.54,51.54,0,0,1-7.1-15.36Z"/><path class="cls-22" d="M581.44,553.68l-15.28-6.59h0L462.21,502.2l0,0-4.81-2.82-7.77-4.57c-42.69-25.06-78.08-45.82-83.42-48.91a27,27,0,0,0-4.32-2c-10-3.7-22.79-2-36.7,6-31.84,18.39-57.55,62.92-57.47,99.5.06,18.19,6.48,31,16.82,37,7.09,4.12,66.59,39,126.09,74l.12.06,90.64,53.21c0-.9-.06-1.79-.06-2.71-.14-48,33.6-106.43,75.36-130.54a90.4,90.4,0,0,1,10.15-5.06c15.07-6.37,28.75-6.84,39.67-2.17h0l-2.24-1-22.61-9.76Z"/><path class="cls-23" d="M504.15,732.71a73.65,73.65,0,0,1-2.5-13.8c-.16-1.72-.25-3.5-.31-5.3L410.7,660.4l-.12-.06c-59.5-34.93-119-69.85-126.09-74-10.34-6-16.76-18.79-16.82-37-.08-36.58,25.63-81.11,57.47-99.5,13.91-8.06,26.7-9.74,36.7-6l-2.62-1.53c-6.71-3.9-15-5-24.35-3a62.57,62.57,0,0,0-17.69,7.11c-32.61,18.84-59,64.49-58.85,102,0,1,0,1.92.07,2.87.68,17.1,7.1,29.18,17.15,35C282,590,331.39,619,385.31,650.65l52.92,31.05Z"/><path class="cls-24" d="M586.79,575.3a90.4,90.4,0,0,0-10.15,5.06c-41.76,24.11-75.5,82.56-75.36,130.54,0,.92,0,1.81.06,2.71.06,1.8.15,3.58.31,5.3a73.65,73.65,0,0,0,2.5,13.8,51.54,51.54,0,0,0,7.1,15.36,38.81,38.81,0,0,0,9.42,9.61,108.11,108.11,0,0,1-1-15c-.17-57.73,40.42-128,90.66-157a101,101,0,0,1,21.83-9.55l-1.66-1a36,36,0,0,0-4-2C615.54,568.46,601.86,568.93,586.79,575.3Z"/><path class="cls-25" d="M737.43,644.66c-.34-.33-.67-.68-1-1-.65-.61-1.34-1.19-2-1.75-.34-.26-.66-.55-1-.8-.89-.68-1.82-1.29-2.76-1.87l-.58-.37c-.12-.07-.26-.12-.39-.19A80.22,80.22,0,0,1,734.07,666a136.21,136.21,0,0,1-6.17,39.39c-12,39.95-40.37,79.47-73.49,98.58-12.62,7.3-24.55,10.81-35.18,10.94.44.39.86.82,1.32,1.19l.18.16a35.86,35.86,0,0,0,3,2.18l.32.21c1,.65,2.12,1.25,3.23,1.8l.27.13a36.06,36.06,0,0,0,7.44,2.62h.05c1.27.3,2.58.53,3.91.71l.34,0a39.85,39.85,0,0,0,4,.29h.4c1.37,0,2.76,0,4.18-.1l.24,0a54.52,54.52,0,0,0,9.2-1.5l.11,0c1.53-.38,3.08-.84,4.64-1.35l.44-.15c1.52-.51,3.06-1.09,4.61-1.72l.53-.23c1.56-.65,3.14-1.36,4.73-2.15l.42-.22c1.64-.82,3.29-1.7,5-2.66,30.66-17.71,56.9-54.32,68.05-91.33a125.76,125.76,0,0,0,5.72-36.48c0-.57,0-1.11,0-1.67,0-1.33-.06-2.65-.14-3.93-.05-.78-.13-1.52-.2-2.28-.09-1.08-.2-2.16-.33-3.21-.1-.74-.21-1.47-.33-2.2-.16-1-.34-2-.54-3-.14-.68-.28-1.35-.43-2-.24-1-.52-2-.8-3-.16-.57-.31-1.13-.48-1.68-.37-1.16-.78-2.29-1.21-3.38-.12-.33-.23-.68-.36-1-.59-1.42-1.22-2.8-1.9-4.1l-.37-.65q-.85-1.59-1.8-3.06l-.75-1.09c-.55-.79-1.12-1.56-1.7-2.29-.3-.38-.62-.74-.93-1.11Q738.36,645.61,737.43,644.66Z"/><path class="cls-26" d="M654.41,803.93c33.12-19.11,61.45-58.63,73.49-98.58A136.21,136.21,0,0,0,734.07,666a80.22,80.22,0,0,0-4.42-27.28,36.71,36.71,0,0,0-12.59-4.31c4.56,8.6,7.13,19.62,7.16,32.8a130.1,130.1,0,0,1-5.89,37.62c-11.5,38.15-38.56,75.89-70.19,94.15-12.2,7.06-23.73,10.41-34,10.46a39.58,39.58,0,0,0,5,5.48h.08C629.86,814.74,641.79,811.23,654.41,803.93Z"/><path class="cls-27" d="M718.33,704.79a130.1,130.1,0,0,0,5.89-37.62c0-13.18-2.6-24.2-7.16-32.8a43.39,43.39,0,0,0-7.64-.53c-.56,0-1.13.07-1.69.1l-1.52.09c-.6.05-1.23.15-1.84.22s-1,.11-1.53.19-1.28.24-1.92.36-1,.17-1.53.29c-.67.14-1.34.32-2,.49-.5.13-1,.24-1.51.4-.71.19-1.43.43-2.15.65-.48.16-1,.29-1.44.46-.75.25-1.51.54-2.26.83l-1.4.52-.05,0A88.39,88.39,0,0,0,677.29,644,109,109,0,0,0,666,651.48c-1.11.83-2.21,1.69-3.31,2.57-33.87,27.35-59.33,76.49-59.21,117.73a87.58,87.58,0,0,0,.89,12.46A64.8,64.8,0,0,0,607.56,797c.16.45.31.93.49,1.37s.3.7.45,1.06a46.36,46.36,0,0,0,5.67,10c10.24,0,21.77-3.4,34-10.46C679.77,780.68,706.83,742.94,718.33,704.79Z"/><path class="cls-28" d="M519.62,742.65a108.11,108.11,0,0,0,1,15c3,20.75,12.18,35.59,25.49,43.33l67,38.9c-.48-.28-.94-.6-1.42-.9s-1-.59-1.43-.91-1-.74-1.51-1.13-.9-.66-1.34-1-1-.86-1.45-1.29-.84-.73-1.24-1.12-.92-.94-1.38-1.41-.78-.8-1.16-1.22-.86-1-1.29-1.56-.73-.86-1.07-1.31-.81-1.14-1.21-1.71-.67-.92-1-1.41-.74-1.21-1.11-1.82-.62-1-.9-1.52-.68-1.3-1-2-.56-1.07-.82-1.61-.61-1.41-.91-2.11-.49-1.12-.72-1.69c-.29-.72-.54-1.49-.8-2.24s-.44-1.17-.64-1.79-.46-1.57-.69-2.36c-.18-.63-.38-1.24-.54-1.88-.21-.83-.4-1.69-.58-2.54-.15-.65-.31-1.26-.45-1.92-.17-.9-.32-1.83-.47-2.75-.11-.64-.24-1.27-.33-1.93-.15-1-.25-2-.38-3-.07-.63-.15-1.22-.21-1.85-.11-1.15-.18-2.34-.26-3.53,0-.52-.08-1-.11-1.56-.08-1.73-.13-3.5-.13-5.3-.17-57.72,40.42-128,90.66-157,1.58-.91,3.15-1.76,4.7-2.57l1.3-.64c1.12-.56,2.24-1.12,3.34-1.63.53-.24,1.06-.45,1.58-.68,1-.44,2-.89,3-1.29.51-.2,1-.36,1.51-.56l.18-.06c.94-.36,1.89-.73,2.81-1.05l1.66-.52c.92-.29,1.85-.6,2.76-.84.57-.17,1.12-.29,1.68-.43.89-.23,1.78-.47,2.66-.66.56-.12,1.12-.21,1.69-.33.85-.15,1.7-.33,2.55-.47.56-.09,1.11-.13,1.67-.2.83-.11,1.66-.22,2.48-.3.55,0,1.09-.06,1.65-.09.8-.05,1.61-.12,2.39-.14.55,0,1.09,0,1.63,0,.77,0,1.55,0,2.31,0,.54,0,1.07.09,1.61.14.74,0,1.49.1,2.22.19.53.06,1,.17,1.58.25.71.11,1.42.21,2.12.35.53.1,1,.25,1.55.37.68.17,1.37.31,2,.5s1,.33,1.52.49,1.3.41,1.93.65,1,.41,1.49.61,1.23.5,1.82.78,1,.5,1.46.75,1.15.59,1.71.91l.16.08-67-38.91c-11.62-6.75-26.39-8.07-42.91-3.21a101,101,0,0,0-21.83,9.55C560,614.62,519.45,684.92,519.62,742.65Zm24.77,48c-11.32-9.88-17-24.57-18.12-39.32-.78-10.16-3.2-26.15,2.51-35,5.14-8,15.82-5.83,20.53.91,3.6,5.14,4.76,12.53,5.71,19.75a104.34,104.34,0,0,0,2.23,13.2c3.51,12.74,8.29,25.41,7.92,38.84C564.73,804.94,551.45,796.84,544.39,790.67Z"/><path class="cls-29" d="M738.64,616.44c-.59-.28-1.21-.52-1.82-.78s-1-.43-1.49-.61-1.28-.44-1.93-.65-1-.34-1.52-.49-1.35-.33-2-.5c-.51-.12-1-.27-1.55-.37-.7-.14-1.41-.24-2.12-.35-.53-.08-1-.19-1.58-.25-.73-.09-1.48-.14-2.22-.19-.54,0-1.07-.11-1.61-.14-.76,0-1.54,0-2.31,0-.54,0-1.08,0-1.63,0-.78,0-1.59.09-2.39.14-.56,0-1.1,0-1.65.09-.82.08-1.65.19-2.48.3-.56.07-1.11.11-1.67.2-.85.14-1.7.32-2.55.47-.57.12-1.13.21-1.69.33-.88.19-1.77.43-2.66.66-.56.14-1.11.26-1.68.43-.91.24-1.84.55-2.76.84l-1.66.52c-.92.32-1.87.69-2.81,1.05l-.18.06c-.51.2-1,.36-1.51.56-1,.4-2,.85-3,1.29-.52.23-1,.44-1.58.68-1.1.51-2.22,1.07-3.34,1.63l-1.3.64c-1.55.81-3.12,1.66-4.7,2.57-50.24,29-90.83,99.32-90.66,157,0,1.8,0,3.57.13,5.3,0,.53.08,1,.11,1.56.08,1.19.15,2.38.26,3.53.06.63.14,1.22.21,1.85.13,1,.23,2,.38,3,.09.66.22,1.29.33,1.93.15.92.3,1.85.47,2.75.14.66.3,1.27.45,1.92.18.85.37,1.71.58,2.54.16.64.36,1.25.54,1.88.23.79.44,1.6.69,2.36s.43,1.19.64,1.79.51,1.52.8,2.24c.23.57.48,1.12.72,1.69s.59,1.42.91,2.11.55,1.08.82,1.61.65,1.32,1,2,.6,1,.9,1.52.72,1.23,1.11,1.82.65.95,1,1.41.79,1.16,1.21,1.71.71.87,1.07,1.31.85,1.06,1.29,1.56.77.8,1.16,1.22.9,1,1.38,1.41.82.75,1.24,1.12.95.87,1.45,1.29.9.66,1.34,1,1,.77,1.51,1.13,1,.61,1.43.91c16.64,10.55,40.12,9.58,66.14-5.43,50.24-29,90.84-99.33,90.67-157.07-.08-28.76-10.27-49-26.69-58.41-.56-.32-1.14-.61-1.71-.91S739.14,616.67,738.64,616.44ZM741.86,650l.75,1.09q.95,1.47,1.8,3.06l.37.65c.68,1.3,1.31,2.68,1.9,4.1.13.31.24.66.36,1,.43,1.09.84,2.22,1.21,3.38.17.55.32,1.11.48,1.68.28,1,.56,2,.8,3,.15.65.29,1.32.43,2,.2,1,.38,2,.54,3,.12.73.23,1.46.33,2.2.13,1,.24,2.13.33,3.21.07.76.15,1.5.2,2.28.08,1.28.11,2.6.14,3.93,0,.57.06,1.11.06,1.68a126.72,126.72,0,0,1-5.72,36.47c-11.16,37-37.4,73.63-68.07,91.33-1.67,1-3.32,1.84-5,2.66l-.42.22c-1.59.79-3.17,1.5-4.73,2.15l-.53.23c-1.55.63-3.09,1.21-4.61,1.72l-.44.15c-1.56.51-3.11,1-4.64,1.35l-.11,0a54.52,54.52,0,0,1-9.2,1.5l-.24,0c-1.42.1-2.81.13-4.18.1h-.4a39.85,39.85,0,0,1-4-.29l-.34,0c-1.33-.18-2.64-.41-3.91-.71H635a36.06,36.06,0,0,1-7.44-2.62l-.27-.13c-1.11-.55-2.19-1.15-3.23-1.8l-.32-.21a35.86,35.86,0,0,1-3-2.18l-.18-.16c-.48-.38-.95-.78-1.4-1.18a39.58,39.58,0,0,1-5-5.48,46.36,46.36,0,0,1-5.67-10c-.15-.36-.31-.7-.45-1.06s-.33-.92-.49-1.37a64.8,64.8,0,0,1-3.17-12.75,87.58,87.58,0,0,1-.89-12.46c-.12-41.24,25.34-90.38,59.21-117.73,1.1-.88,2.2-1.74,3.31-2.57A109,109,0,0,1,677.29,644a88.39,88.39,0,0,1,11.27-5.52l.05,0,1.4-.52c.75-.29,1.51-.58,2.26-.83.48-.17,1-.3,1.44-.46.72-.22,1.44-.46,2.15-.65.51-.16,1-.27,1.51-.4.68-.17,1.35-.35,2-.49.51-.12,1-.19,1.53-.29s1.29-.26,1.92-.36,1-.12,1.53-.19,1.24-.17,1.84-.22l1.52-.09c.56,0,1.13-.09,1.69-.1a43.39,43.39,0,0,1,7.64.53,36.71,36.71,0,0,1,12.59,4.31c.13.07.27.12.39.19l.58.37c.94.58,1.87,1.19,2.76,1.87.34.25.66.54,1,.8.69.56,1.38,1.14,2,1.75.35.32.68.67,1,1q.93.95,1.8,2c.31.37.63.73.93,1.11C740.74,648.45,741.31,649.22,741.86,650Z"/><path class="cls-30" d="M555,737c-.95-7.22-2.11-14.61-5.71-19.75-4.71-6.74-15.39-8.91-20.53-.91-5.71,8.89-3.29,24.88-2.51,35,1.12,14.75,6.8,29.44,18.12,39.32,7.06,6.17,20.34,14.27,20.78-1.66.37-13.43-4.41-26.1-7.92-38.84A104.34,104.34,0,0,1,555,737Z"/><path class="cls-31" d="M414.87,726.51h0l-23.53-13.46h0l-11.41-6.43A55.86,55.86,0,0,0,307.63,721a45.22,45.22,0,0,0,13.28,66.65l27.82,15.9h0l24.5,14h0c5.72,3.26,13.15,3,21.29-1.75,18-10.41,32.64-38.34,32.64-62.37,0-13.78-4.8-23.28-12.29-26.93Z"/><path class="cls-2" d="M368.5,761.53c10.85-25.46,31.32-41.13,45.73-35s17.29,31.76,6.44,57.22-31.32,41.13-45.73,35S357.65,787,368.5,761.53Z"/><path class="cls-3" d="M418,758.75c0,17.26-10.5,37.32-23.45,44.8s-23.45-.46-23.45-17.73,10.5-37.33,23.45-44.8S418,741.48,418,758.75Z"/><path class="cls-32" d="M286,763.18h0l-23.53-13.46h0l-11.41-6.42a55.86,55.86,0,0,0-72.29,14.4,45.22,45.22,0,0,0,13.28,66.65l27.82,15.9h0l24.5,14h0c5.72,3.26,13.16,2.95,21.29-1.75,18-10.41,32.64-38.33,32.64-62.37,0-13.77-4.8-23.27-12.29-26.92Z"/><ellipse class="cls-2" cx="265.66" cy="809.3" rx="50.12" ry="28.35" transform="translate(-583.01 736.47) rotate(-66.92)"/><path class="cls-3" d="M246.92,801.32c7.8-18.29,22.5-29.54,32.85-25.13s12.42,22.81,4.63,41.1-22.5,29.54-32.85,25.13S239.13,819.61,246.92,801.32Z"/><path class="cls-33" d="M262.15,585,63.84,720.54a17,17,0,0,0,1.09,28.84l58.66,33.87a71.74,71.74,0,0,0,55.71,6.81l289.41-83.28a19.89,19.89,0,0,0,4.45-36.34L321.31,582.77A55.59,55.59,0,0,0,262.15,585Z"/></svg>